<svg width="34" height="11" viewBox="0 0 34 11" fill="none" xmlns="http://www.w3.org/2000/svg">
<path d="M6.684 7.488L6.684 9H0.78L0.78 7.344C0.78 6.904 0.844 6.528 0.972 6.216C1.108 5.904 1.296 5.64 1.536 5.424C1.784 5.208 2.08 5.032 2.424 4.896C2.768 4.752 3.156 4.632 3.588 4.536C3.908 4.464 4.168 4.384 4.368 4.296C4.576 4.2 4.74 4.096 4.86 3.984C4.98 3.864 5.06 3.736 5.1 3.6C5.148 3.456 5.172 3.296 5.172 3.12C5.172 2.784 5.048 2.504 4.8 2.28C4.56 2.056 4.224 1.944 3.792 1.944C3.336 1.944 2.972 2.084 2.7 2.364C2.428 2.636 2.292 3.016 2.292 3.504V4.032H0.708L0.708 3.36C0.708 2.968 0.776 2.596 0.912 2.244C1.056 1.884 1.256 1.572 1.512 1.308C1.776 1.036 2.096 0.824 2.472 0.672C2.848 0.512 3.272 0.431999 3.744 0.431999C4.248 0.431999 4.688 0.507999 5.064 0.659999C5.44 0.803999 5.752 0.996 6 1.236C6.256 1.476 6.444 1.756 6.564 2.076C6.692 2.388 6.756 2.712 6.756 3.048V3.192C6.756 3.896 6.556 4.48 6.156 4.944C5.764 5.408 5.12 5.744 4.224 5.952C3.848 6.04 3.536 6.132 3.288 6.228C3.048 6.316 2.86 6.416 2.724 6.528C2.588 6.64 2.492 6.764 2.436 6.9C2.388 7.028 2.364 7.176 2.364 7.344V7.488H6.684ZM7.29966 0.599999H10.3477C11.3877 0.599999 12.1597 0.843999 12.6637 1.332C13.1677 1.812 13.4197 2.56 13.4197 3.576L13.4197 6.024C13.4197 7.04 13.1677 7.792 12.6637 8.28C12.1597 8.76 11.3877 9 10.3477 9L7.29966 9L7.29966 7.476H8.09166L8.09166 2.112H7.29966V0.599999ZM10.3477 7.488C10.8997 7.488 11.2837 7.36 11.4997 7.104C11.7237 6.84 11.8357 6.432 11.8357 5.88L11.8357 3.576C11.8357 3.096 11.7237 2.732 11.4997 2.484C11.2837 2.236 10.8997 2.112 10.3477 2.112H9.67566L9.67566 7.488H10.3477ZM14.2273 9.576H20.1073V10.944H14.2273V9.576ZM20.795 0.599999L23.843 0.599999C24.883 0.599999 25.655 0.843999 26.159 1.332C26.663 1.812 26.915 2.56 26.915 3.576V6.024C26.915 7.04 26.663 7.792 26.159 8.28C25.655 8.76 24.883 9 23.843 9H20.795V7.476H21.587V2.112H20.795V0.599999ZM23.843 7.488C24.395 7.488 24.779 7.36 24.995 7.104C25.219 6.84 25.331 6.432 25.331 5.88V3.576C25.331 3.096 25.219 2.732 24.995 2.484C24.779 2.236 24.395 2.112 23.843 2.112L23.171 2.112V7.488H23.843ZM29.4986 9L27.9146 9V0.599999H29.4986V4.044H29.8466L32.0666 0.599999L33.8546 0.599999V0.672L31.2626 4.692V4.908L33.9986 8.928V9H32.1386L29.8466 5.556H29.4986V9Z" fill="white"/>
</svg>
