<svg width="32" height="32" viewBox="0 0 32 32" fill="none" xmlns="http://www.w3.org/2000/svg">
<rect width="32" height="32" fill="black"/>
<path fill-rule="evenodd" clip-rule="evenodd" d="M22.3103 18.7654C22.3178 18.8764 22.3251 18.9832 22.333 19.0853C22.3932 19.8705 22.3091 20.6032 22.1371 21.0373C22.0459 21.2674 21.9586 21.3408 21.9303 21.3535L21.9302 21.3539C21.9302 21.3539 21.9305 21.3544 21.9241 21.3526C21.9071 21.3479 21.8613 21.3287 21.7893 21.2617L21.7684 21.2423C21.134 20.6518 20.3299 19.9034 19.8796 19.5891L19.4694 19.968C19.6853 20.0684 20.6737 21.0759 21.3314 21.6879C21.4502 21.7986 21.5856 21.8877 21.7391 21.9303C21.9011 21.9752 22.0642 21.9626 22.2116 21.8965C22.4796 21.7762 22.6419 21.5054 22.7447 21.2459C22.9607 20.7009 23.0427 19.873 22.979 19.0424C22.9712 18.9409 22.964 18.8324 22.9564 18.7178C22.861 17.2781 22.7016 14.8719 20.4749 13.1083L20.0552 13.5674C22.0635 15.158 22.2111 17.3159 22.3103 18.7654Z" fill="white"/>
<path fill-rule="evenodd" clip-rule="evenodd" d="M12.0425 12.5329C12.0462 12.776 12.0515 13.0445 12.0587 13.3309C12.0636 13.5277 12.0685 13.7312 12.0734 13.9393C12.1007 15.0838 12.1312 16.3673 12.1975 17.4423C12.2368 18.0784 12.288 18.6319 12.3566 19.0362C12.375 19.1448 12.3942 19.2393 12.4137 19.3197C12.6073 19.1199 12.886 18.8428 13.2438 18.572C13.9602 18.0296 15.0187 17.4947 16.3812 17.6601C16.8672 17.6944 17.2404 17.8073 17.673 18.0358C18.0629 18.2418 18.5092 18.558 19.1498 19.0117C19.2826 19.1059 19.4238 19.2059 19.5746 19.3121C19.5834 19.2709 19.5923 19.2251 19.6014 19.1747C19.6693 18.7973 19.7306 18.2371 19.7838 17.5793C19.8899 16.2673 19.9612 14.6014 19.9931 13.3152C20.0002 13.0275 20.0055 12.7577 20.0091 12.5132C19.9039 9.77739 19.03 7.21034 16.0247 5.64923C14.5267 6.41363 13.5518 7.34936 12.9409 8.45307C12.3058 9.60057 12.0508 10.9538 12.0425 12.5329ZM16.0155 5L15.8854 5.03468C14.1945 5.86298 13.0669 6.9092 12.3652 8.17706C11.6663 9.43985 11.4032 10.8984 11.3949 12.5328L11.3949 12.5384C11.398 12.7438 11.4022 12.9669 11.4078 13.2035C9.2928 14.9576 9.13733 17.3039 9.04363 18.7178C9.03604 18.8324 9.02885 18.9409 9.02106 19.0425C8.95731 19.873 9.03936 20.7009 9.25534 21.2459C9.35817 21.5054 9.52039 21.7762 9.78841 21.8965C9.93583 21.9627 10.099 21.9752 10.2609 21.9303C10.4144 21.8877 10.5498 21.7986 10.6687 21.688C11.3008 21.0996 12.0409 20.4119 12.46 20.1064C12.5004 20.0905 12.5309 20.0707 12.5483 20.0587C12.5896 20.0302 12.6585 19.9655 12.6585 19.9655C12.6585 19.9655 12.7581 19.8652 12.8186 19.8023C12.8429 19.777 12.868 19.7508 12.8935 19.7246C13.0796 19.5325 13.3325 19.2818 13.6524 19.0396C14.2167 18.6125 14.9703 18.2256 15.9076 18.2325C16.5724 18.2325 16.9172 18.3297 17.3533 18.56C17.7024 18.7444 18.0986 19.025 18.72 19.4651C18.9448 19.6243 19.199 19.8043 19.4911 20.0082C19.5488 20.0485 19.6358 20.0855 19.7431 20.0776C19.8465 20.0699 19.9216 20.0239 19.9667 19.9856C20.0463 19.9182 20.0883 19.8286 20.111 19.7741C20.163 19.6491 20.2045 19.4724 20.2402 19.2741C20.3131 18.8685 20.3761 18.2858 20.4296 17.6246C20.5368 16.2984 20.6085 14.6213 20.6405 13.3291C20.6478 13.0367 20.6532 12.7625 20.6568 12.5141C20.6569 12.5091 20.6568 12.5042 20.6567 12.4993C20.5466 9.60056 19.592 6.7306 16.1676 5.0353L16.0155 5ZM11.8827 19.7682C11.8716 19.7423 11.8613 19.716 11.8518 19.6897C11.7973 19.5387 11.7536 19.3463 11.7169 19.1302C11.6431 18.6955 11.5905 18.1178 11.551 17.4768C11.4855 16.4149 11.4545 15.1529 11.4277 14.0285C9.90928 15.5563 9.77963 17.4518 9.68978 18.7655C9.68219 18.8765 9.67488 18.9833 9.66705 19.0854C9.60679 19.8705 9.69095 20.6033 9.86297 21.0374C9.95415 21.2675 10.0414 21.3409 10.0697 21.3536L10.0698 21.354C10.0698 21.354 10.0695 21.3545 10.0759 21.3527C10.093 21.348 10.1388 21.3287 10.2107 21.2618L10.2316 21.2424C10.7659 20.7451 11.4204 20.1359 11.8827 19.7682Z" fill="white"/>
<path d="M17.8339 11.0274C17.8339 11.9593 17.0098 12.7816 15.9076 12.7816C14.8055 12.7816 13.9813 11.9593 13.9813 11.0274C13.9813 10.0956 14.8055 9.27322 15.9076 9.27322C17.0098 9.27322 17.8339 10.0956 17.8339 11.0274Z" stroke="white" stroke-width="1.1126"/>
<path d="M17.4018 21.8671C17.4018 22.2927 17.1986 23.2496 16.8431 24.1127C16.6676 24.5388 16.4706 24.9024 16.2721 25.1493C16.0584 25.4149 15.9317 25.4391 15.9073 25.4391C15.8829 25.4391 15.7561 25.4149 15.5425 25.1493C15.344 24.9024 15.147 24.5388 14.9715 24.1127C14.616 23.2496 14.4127 22.2927 14.4127 21.8671C14.4127 21.165 15.0408 20.5243 15.9073 20.5243C16.7737 20.5243 17.4018 21.165 17.4018 21.8671Z" stroke="white" stroke-width="1.1126"/>
<path d="M12.0385 25.7973C12.0385 25.5637 12.1573 24.985 12.3762 24.4522C12.4834 24.1912 12.599 23.9808 12.7073 23.8458C12.7359 23.8101 12.7593 23.7853 12.7775 23.7681C12.7956 23.7853 12.8191 23.8101 12.8477 23.8458C12.956 23.9808 13.0716 24.1912 13.1788 24.4522C13.3976 24.985 13.5165 25.5637 13.5165 25.7973C13.5165 26.1162 13.2252 26.4437 12.7775 26.4437C12.3298 26.4437 12.0385 26.1162 12.0385 25.7973Z" stroke="white" stroke-width="1.1126"/>
<path d="M18.2985 25.7973C18.2985 25.5637 18.4173 24.985 18.6362 24.4522C18.7434 24.1912 18.859 23.9808 18.9673 23.8458C18.9959 23.8101 19.0194 23.7853 19.0375 23.7681C19.0556 23.7853 19.0791 23.8101 19.1077 23.8458C19.216 23.9808 19.3316 24.1912 19.4388 24.4522C19.6576 24.985 19.7765 25.5637 19.7765 25.7973C19.7765 26.1162 19.4852 26.4437 19.0375 26.4437C18.5898 26.4437 18.2985 26.1162 18.2985 25.7973Z" stroke="white" stroke-width="1.1126"/>
</svg>
