<svg width="256" height="256" viewBox="0 0 256 256" fill="none" xmlns="http://www.w3.org/2000/svg">
<rect width="256" height="256" fill="black"/>
<path fill-rule="evenodd" clip-rule="evenodd" d="M202.117 155.526C202.204 156.61 202.287 157.654 202.377 158.652C203.066 166.325 202.104 173.486 200.138 177.728C199.096 179.977 198.099 180.694 197.775 180.819L197.774 180.822C197.774 180.822 197.777 180.827 197.704 180.81C197.509 180.764 196.986 180.576 196.164 179.921L195.925 179.732C188.674 173.961 179.485 166.647 174.338 163.576L169.65 167.278C172.118 168.26 183.414 178.105 190.93 184.087C192.288 185.168 193.836 186.039 195.59 186.455C197.441 186.894 199.305 186.771 200.99 186.124C204.053 184.949 205.907 182.302 207.082 179.767C209.551 174.44 210.488 166.35 209.76 158.233C209.671 157.24 209.588 156.18 209.502 155.06C208.411 140.991 206.589 117.476 181.142 100.241L176.345 104.726C199.297 120.272 200.984 141.36 202.117 155.526Z" fill="white"/>
<path fill-rule="evenodd" clip-rule="evenodd" d="M84.7718 94.6168C84.8134 96.9929 84.8743 99.6164 84.9563 102.415C85.0127 104.339 85.0681 106.328 85.1247 108.361C85.4362 119.546 85.7856 132.089 86.5433 142.595C86.9917 148.811 87.5772 154.221 88.3612 158.172C88.5718 159.233 88.7906 160.157 89.0141 160.942C91.2266 158.99 94.4111 156.282 98.5002 153.635C106.688 148.335 118.785 143.107 134.356 144.723C139.911 145.059 144.176 146.163 149.12 148.396C153.576 150.409 158.677 153.498 165.997 157.933C167.516 158.853 169.13 159.83 170.853 160.868C170.953 160.465 171.055 160.018 171.159 159.525C171.934 155.837 172.635 150.363 173.243 143.934C174.456 131.112 175.271 114.832 175.635 102.262C175.717 99.4506 175.777 96.8143 175.819 94.4244C174.616 67.6881 164.629 42.6011 130.282 27.3448C113.162 34.815 102.021 43.9596 95.0393 54.7459C87.781 65.9601 84.8663 79.1853 84.7718 94.6168ZM130.177 21L128.691 21.3389C109.365 29.4337 96.479 39.6581 88.4594 52.0486C80.4719 64.3894 77.4646 78.6439 77.3702 94.6163L77.3705 94.671C77.4055 96.678 77.4542 98.8585 77.5176 101.17C53.3463 118.313 51.5695 141.242 50.4987 155.061C50.4119 156.181 50.3297 157.241 50.2407 158.233C49.5122 166.35 50.4498 174.441 52.9182 179.767C54.0933 182.303 55.9473 184.949 59.0104 186.125C60.6953 186.772 62.5597 186.894 64.4102 186.455C66.1645 186.039 67.712 185.168 69.0704 184.087C76.2952 178.337 84.7536 171.617 89.5423 168.631C90.0042 168.475 90.3536 168.282 90.5524 168.165C91.0245 167.886 91.8117 167.254 91.8117 167.254C91.8117 167.254 92.9499 166.274 93.641 165.659C93.9191 165.411 94.2061 165.156 94.497 164.899C96.6236 163.022 99.5142 160.572 103.17 158.205C109.619 154.031 118.232 150.25 128.943 150.318C136.542 150.318 140.483 151.267 145.466 153.519C149.456 155.321 153.984 158.063 161.086 162.364C163.655 163.919 166.56 165.679 169.899 167.671C170.558 168.065 171.552 168.427 172.778 168.349C173.96 168.274 174.818 167.824 175.334 167.45C176.243 166.792 176.724 165.915 176.983 165.383C177.578 164.162 178.052 162.435 178.459 160.497C179.293 156.533 180.012 150.839 180.624 144.376C181.849 131.416 182.668 115.026 183.035 102.398C183.117 99.5406 183.179 96.861 183.221 94.4328C183.222 94.3846 183.221 94.3364 183.219 94.2883C181.961 65.96 171.051 37.9127 131.915 21.345L130.177 21ZM82.9457 165.326C82.8182 165.073 82.701 164.816 82.5925 164.559C81.9693 163.083 81.4693 161.203 81.0503 159.091C80.2073 154.843 79.6058 149.197 79.154 142.933C78.4055 132.555 78.0517 120.221 77.7456 109.233C60.3917 124.164 58.9101 142.688 57.8832 155.526C57.7964 156.611 57.7129 157.655 57.6234 158.653C56.9348 166.325 57.8965 173.487 59.8625 177.729C60.9046 179.978 61.9016 180.695 62.2254 180.819L62.2261 180.823C62.2261 180.823 62.2231 180.828 62.296 180.81C62.4909 180.764 63.0145 180.576 63.8368 179.922L64.0751 179.732C70.1814 174.873 77.6622 168.919 82.9457 165.326Z" fill="white"/>
<path d="M156.761 79.9043C156.761 91.9559 144.432 101.928 128.945 101.928C113.457 101.928 101.128 91.9559 101.128 79.9043C101.128 67.8528 113.457 57.8807 128.945 57.8807C144.432 57.8807 156.761 67.8528 156.761 79.9043Z" stroke="white" stroke-width="1.1126"/>
<path d="M151.822 185.837C151.822 190.847 149.235 200.847 145.012 209.612C142.905 213.987 140.409 218.014 137.658 220.939C134.9 223.872 131.954 225.626 128.94 225.626C125.927 225.626 122.981 223.872 120.222 220.939C117.472 218.014 114.976 213.987 112.868 209.612C108.646 200.847 106.058 190.847 106.058 185.837C106.058 176.009 116.175 167.835 128.94 167.835C141.706 167.835 151.822 176.009 151.822 185.837Z" stroke="white" stroke-width="1.1126"/>
<path d="M78.9246 224.246C78.9246 221.116 80.5458 214.813 83.2054 209.277C84.5315 206.516 86.0974 203.986 87.8151 202.154C89.5406 200.314 91.3508 199.25 93.1713 199.25C94.9918 199.25 96.802 200.314 98.5276 202.154C100.245 203.986 101.811 206.516 103.137 209.277C105.797 214.813 107.418 221.116 107.418 224.246C107.418 230.318 101.166 235.444 93.1713 235.444C85.1766 235.444 78.9246 230.318 78.9246 224.246Z" stroke="white" stroke-width="1.1126"/>
<path d="M150.468 224.246C150.468 221.116 152.089 214.813 154.748 209.277C156.074 206.516 157.64 203.986 159.358 202.154C161.084 200.314 162.894 199.25 164.714 199.25C166.535 199.25 168.345 200.314 170.071 202.154C171.788 203.986 173.354 206.516 174.68 209.277C177.34 214.813 178.961 221.116 178.961 224.246C178.961 230.318 172.709 235.444 164.714 235.444C156.72 235.444 150.468 230.318 150.468 224.246Z" stroke="white" stroke-width="1.1126"/>
</svg>
