<svg width="67" height="41" viewBox="0 0 67 41" fill="none" xmlns="http://www.w3.org/2000/svg">
<path d="M32.4802 17.089C32.0292 17.089 31.6168 17.0119 31.243 16.8576C30.8692 16.7033 30.5458 16.4838 30.2728 16.1989C29.9999 15.9082 29.7862 15.567 29.632 15.1753C29.4836 14.7778 29.4094 14.3446 29.4094 13.8758C29.4094 13.4249 29.4895 13.0065 29.6498 12.6208C29.81 12.2351 30.0325 11.8969 30.3173 11.6061C30.6021 11.3154 30.9344 11.0899 31.3142 10.9297C31.694 10.7695 32.1064 10.6893 32.5514 10.6893C32.854 10.6893 33.1478 10.7339 33.4326 10.8229C33.7174 10.9119 33.9785 11.0365 34.2159 11.1967C34.4532 11.351 34.652 11.532 34.8122 11.7396L34.0734 12.5496C33.9192 12.3894 33.7589 12.2559 33.5928 12.1491C33.4326 12.0363 33.2635 11.9533 33.0855 11.8999C32.9134 11.8405 32.7354 11.8108 32.5514 11.8108C32.2785 11.8108 32.0203 11.8613 31.777 11.9622C31.5397 12.063 31.332 12.2054 31.154 12.3894C30.9819 12.5733 30.8454 12.7929 30.7446 13.0481C30.6437 13.2973 30.5932 13.5762 30.5932 13.8847C30.5932 14.1992 30.6407 14.484 30.7357 14.7392C30.8365 14.9944 30.976 15.2139 31.154 15.3979C31.3379 15.5818 31.5545 15.7242 31.8037 15.8251C32.0589 15.92 32.3378 15.9675 32.6404 15.9675C32.8362 15.9675 33.0261 15.9408 33.2101 15.8874C33.394 15.834 33.5631 15.7598 33.7174 15.6649C33.8776 15.564 34.023 15.4483 34.1536 15.3178L34.7232 16.2345C34.5808 16.3947 34.3909 16.5401 34.1536 16.6707C33.9162 16.8012 33.6492 16.9051 33.3525 16.9822C33.0617 17.0534 32.771 17.089 32.4802 17.089ZM37.8705 17.089C37.4017 17.089 36.9833 16.9852 36.6154 16.7775C36.2476 16.5639 35.9568 16.2731 35.7432 15.9052C35.5296 15.5373 35.4227 15.119 35.4227 14.6502C35.4227 14.1814 35.5296 13.7631 35.7432 13.3952C35.9568 13.0273 36.2476 12.7395 36.6154 12.5318C36.9833 12.3182 37.4017 12.2114 37.8705 12.2114C38.3333 12.2114 38.7487 12.3182 39.1166 12.5318C39.4845 12.7395 39.7723 13.0273 39.9799 13.3952C40.1936 13.7631 40.3004 14.1814 40.3004 14.6502C40.3004 15.119 40.1936 15.5373 39.9799 15.9052C39.7723 16.2731 39.4845 16.5639 39.1166 16.7775C38.7487 16.9852 38.3333 17.089 37.8705 17.089ZM37.8705 16.1188C38.1256 16.1188 38.3511 16.0536 38.5469 15.923C38.7487 15.7925 38.9059 15.6174 39.0187 15.3979C39.1373 15.1783 39.1937 14.9291 39.1878 14.6502C39.1937 14.3654 39.1373 14.1132 39.0187 13.8936C38.9059 13.6741 38.7487 13.502 38.5469 13.3774C38.3511 13.2468 38.1256 13.1816 37.8705 13.1816C37.6153 13.1816 37.3839 13.2468 37.1762 13.3774C36.9744 13.502 36.8172 13.677 36.7045 13.9025C36.5917 14.1221 36.5353 14.3713 36.5353 14.6502C36.5353 14.9291 36.5917 15.1783 36.7045 15.3979C36.8172 15.6174 36.9744 15.7925 37.1762 15.923C37.3839 16.0536 37.6153 16.1188 37.8705 16.1188ZM41.2797 17V12.3093H42.3478L42.3656 13.2706L42.1608 13.3774C42.2202 13.1638 42.3359 12.9709 42.508 12.7988C42.6801 12.6208 42.8848 12.4784 43.1221 12.3716C43.3595 12.2648 43.6028 12.2114 43.852 12.2114C44.208 12.2114 44.5047 12.2826 44.7421 12.425C44.9854 12.5674 45.1663 12.781 45.285 13.0659C45.4096 13.3507 45.4719 13.7067 45.4719 14.1339V17H44.3771V14.2141C44.3771 13.9767 44.3445 13.7809 44.2792 13.6266C44.214 13.4664 44.1131 13.3507 43.9766 13.2795C43.8401 13.2023 43.674 13.1667 43.4782 13.1727C43.3179 13.1727 43.1696 13.1994 43.0331 13.2528C42.9026 13.3002 42.7869 13.3714 42.686 13.4664C42.591 13.5554 42.5139 13.6592 42.4546 13.7779C42.4012 13.8966 42.3745 14.0271 42.3745 14.1696V17H41.8315C41.7247 17 41.6238 17 41.5289 17C41.4399 17 41.3568 17 41.2797 17ZM47.2109 17V11.1166H48.3057V17H47.2109ZM46.2852 13.324V12.3093H49.3293V13.324H46.2852ZM52.3181 17.089C51.8256 17.089 51.3894 16.9852 51.0097 16.7775C50.6358 16.5698 50.3421 16.2879 50.1285 15.9319C49.9208 15.5699 49.817 15.1575 49.817 14.6947C49.817 14.3268 49.8763 13.9915 49.995 13.6889C50.1137 13.3863 50.2768 13.1252 50.4845 12.9056C50.6981 12.6802 50.9503 12.5081 51.2411 12.3894C51.5378 12.2648 51.8612 12.2025 52.2113 12.2025C52.5198 12.2025 52.8076 12.2618 53.0747 12.3805C53.3417 12.4992 53.5731 12.6624 53.7689 12.87C53.9647 13.0718 54.1131 13.3151 54.214 13.5999C54.3208 13.8788 54.3712 14.1844 54.3653 14.5167L54.3564 14.8994H50.5557L50.351 14.1518H53.4396L53.2972 14.3031V14.1072C53.2794 13.9233 53.22 13.7631 53.1192 13.6266C53.0183 13.4842 52.8877 13.3744 52.7275 13.2973C52.5732 13.2142 52.4012 13.1727 52.2113 13.1727C51.9205 13.1727 51.6743 13.229 51.4725 13.3418C51.2767 13.4545 51.1284 13.6177 51.0275 13.8313C50.9266 14.039 50.8762 14.3001 50.8762 14.6146C50.8762 14.9172 50.9385 15.1813 51.0631 15.4068C51.1936 15.6322 51.3746 15.8073 51.606 15.9319C51.8434 16.0506 52.1193 16.1099 52.4338 16.1099C52.6534 16.1099 52.8551 16.0743 53.0391 16.0031C53.223 15.9319 53.4218 15.8043 53.6354 15.6204L54.1784 16.3769C54.0181 16.5253 53.8342 16.6529 53.6265 16.7597C53.4248 16.8606 53.2111 16.9407 52.9856 17C52.7602 17.0593 52.5376 17.089 52.3181 17.089ZM55.3349 17V12.3093H56.403L56.4208 13.2706L56.2161 13.3774C56.2754 13.1638 56.3911 12.9709 56.5632 12.7988C56.7353 12.6208 56.94 12.4784 57.1774 12.3716C57.4147 12.2648 57.658 12.2114 57.9072 12.2114C58.2633 12.2114 58.5599 12.2826 58.7973 12.425C59.0406 12.5674 59.2216 12.781 59.3402 13.0659C59.4649 13.3507 59.5272 13.7067 59.5272 14.1339V17H58.4324V14.2141C58.4324 13.9767 58.3997 13.7809 58.3345 13.6266C58.2692 13.4664 58.1683 13.3507 58.0318 13.2795C57.8954 13.2023 57.7292 13.1667 57.5334 13.1727C57.3732 13.1727 57.2248 13.1994 57.0884 13.2528C56.9578 13.3002 56.8421 13.3714 56.7412 13.4664C56.6463 13.5554 56.5691 13.6592 56.5098 13.7779C56.4564 13.8966 56.4297 14.0271 56.4297 14.1696V17H55.8867C55.7799 17 55.6791 17 55.5841 17C55.4951 17 55.412 17 55.3349 17ZM61.2662 17V11.1166H62.361V17H61.2662ZM60.3405 13.324V12.3093H63.3845V13.324H60.3405ZM31.8126 27.089C31.4507 27.089 31.1184 27.0445 30.8158 26.9555C30.5131 26.8606 30.2402 26.7211 29.9969 26.5372C29.7536 26.3532 29.537 26.1307 29.3471 25.8696L30.1037 25.0151C30.3945 25.4186 30.6793 25.6975 30.9582 25.8518C31.2371 26.0061 31.5516 26.0832 31.9017 26.0832C32.1034 26.0832 32.2874 26.0536 32.4535 25.9942C32.6196 25.9289 32.7502 25.8429 32.8451 25.7361C32.9401 25.6233 32.9875 25.4958 32.9875 25.3534C32.9875 25.2525 32.9668 25.1605 32.9252 25.0774C32.8896 24.9884 32.8333 24.9113 32.7561 24.846C32.679 24.7748 32.584 24.7095 32.4713 24.6502C32.3586 24.5909 32.231 24.5404 32.0886 24.4989C31.9462 24.4573 31.7889 24.4188 31.6168 24.3832C31.2905 24.3179 31.0056 24.2319 30.7624 24.125C30.5191 24.0123 30.3143 23.8758 30.1482 23.7156C29.9821 23.5495 29.8604 23.3655 29.7833 23.1638C29.7061 22.9561 29.6676 22.7217 29.6676 22.4606C29.6676 22.1995 29.7239 21.9592 29.8367 21.7396C29.9554 21.5201 30.1156 21.3302 30.3173 21.17C30.5191 21.0098 30.7535 20.8852 31.0205 20.7962C31.2875 20.7071 31.5753 20.6626 31.8839 20.6626C32.2339 20.6626 32.5455 20.7042 32.8184 20.7873C33.0973 20.8703 33.3406 20.9949 33.5483 21.1611C33.7619 21.3213 33.937 21.5171 34.0734 21.7485L33.308 22.5051C33.1893 22.3212 33.0558 22.1698 32.9074 22.0512C32.7591 21.9266 32.5989 21.8346 32.4268 21.7752C32.2547 21.71 32.0737 21.6773 31.8839 21.6773C31.6702 21.6773 31.4833 21.707 31.3231 21.7663C31.1688 21.8257 31.0472 21.9117 30.9582 22.0245C30.8692 22.1313 30.8247 22.2618 30.8247 22.4161C30.8247 22.5348 30.8514 22.6416 30.9048 22.7365C30.9582 22.8255 31.0323 22.9056 31.1273 22.9768C31.2282 23.0481 31.3557 23.1104 31.51 23.1638C31.6643 23.2172 31.8393 23.2646 32.0352 23.3062C32.3615 23.3714 32.6553 23.4605 32.9163 23.5732C33.1774 23.68 33.4 23.8106 33.5839 23.9648C33.7679 24.1132 33.9073 24.2853 34.0022 24.4811C34.0972 24.671 34.1446 24.8846 34.1446 25.1219C34.1446 25.5314 34.0467 25.8844 33.8509 26.1811C33.661 26.4719 33.3911 26.6974 33.041 26.8576C32.6909 27.0119 32.2814 27.089 31.8126 27.089ZM35.2212 28.9582V22.3093H36.2982L36.316 23.3774L36.1291 23.2973C36.1647 23.1133 36.2656 22.9412 36.4317 22.781C36.5979 22.6149 36.7996 22.4814 37.037 22.3805C37.2803 22.2796 37.5325 22.2292 37.7936 22.2292C38.2089 22.2292 38.5768 22.333 38.8972 22.5407C39.2236 22.7484 39.4788 23.0332 39.6627 23.3952C39.8526 23.7571 39.9475 24.1755 39.9475 24.6502C39.9475 25.119 39.8526 25.5373 39.6627 25.9052C39.4788 26.2672 39.2236 26.555 38.8972 26.7686C38.5768 26.9763 38.2149 27.0801 37.8114 27.0801C37.5384 27.0801 37.2743 27.0267 37.0192 26.9199C36.77 26.8131 36.5563 26.6736 36.3783 26.5016C36.2062 26.3295 36.0994 26.1485 36.0579 25.9586L36.3249 25.834V28.9582H35.2212ZM37.5888 26.1099C37.8381 26.1099 38.0606 26.0476 38.2564 25.923C38.4522 25.7984 38.6035 25.6263 38.7103 25.4068C38.8231 25.1872 38.8794 24.935 38.8794 24.6502C38.8794 24.3654 38.826 24.1161 38.7192 23.9025C38.6124 23.683 38.4611 23.5109 38.2653 23.3863C38.0695 23.2617 37.844 23.1994 37.5888 23.1994C37.3277 23.1994 37.0993 23.2617 36.9035 23.3863C36.7136 23.505 36.5623 23.6741 36.4495 23.8936C36.3368 24.1132 36.2804 24.3654 36.2804 24.6502C36.2804 24.935 36.3368 25.1872 36.4495 25.4068C36.5623 25.6263 36.7136 25.7984 36.9035 25.923C37.0993 26.0476 37.3277 26.1099 37.5888 26.1099ZM42.6945 27.089C42.3088 27.089 41.9587 26.9822 41.6442 26.7686C41.3298 26.555 41.0776 26.2642 40.8877 25.8963C40.6978 25.5284 40.6029 25.1101 40.6029 24.6413C40.6029 24.1725 40.6978 23.7542 40.8877 23.3863C41.0776 23.0184 41.3357 22.7306 41.6621 22.5229C41.9884 22.3152 42.3563 22.2114 42.7657 22.2114C43.0031 22.2114 43.2197 22.247 43.4155 22.3182C43.6113 22.3835 43.7834 22.4784 43.9317 22.603C44.0801 22.7276 44.2017 22.87 44.2967 23.0303C44.3976 23.1905 44.4658 23.3625 44.5014 23.5465L44.2611 23.4842V22.3093H45.3648V27H44.2522V25.8785L44.5103 25.834C44.4688 25.9942 44.3916 26.1515 44.2789 26.3057C44.1721 26.4541 44.0356 26.5876 43.8694 26.7063C43.7092 26.819 43.5282 26.911 43.3265 26.9822C43.1307 27.0534 42.92 27.089 42.6945 27.089ZM42.9972 26.1188C43.2523 26.1188 43.4778 26.0565 43.6736 25.9319C43.8694 25.8073 44.0208 25.6352 44.1276 25.4157C44.2403 25.1902 44.2967 24.9321 44.2967 24.6413C44.2967 24.3565 44.2403 24.1043 44.1276 23.8847C44.0208 23.6652 43.8694 23.4931 43.6736 23.3685C43.4778 23.2439 43.2523 23.1816 42.9972 23.1816C42.742 23.1816 42.5165 23.2439 42.3207 23.3685C42.1308 23.4931 41.9825 23.6652 41.8757 23.8847C41.7689 24.1043 41.7155 24.3565 41.7155 24.6413C41.7155 24.9321 41.7689 25.1902 41.8757 25.4157C41.9825 25.6352 42.1308 25.8073 42.3207 25.9319C42.5165 26.0565 42.742 26.1188 42.9972 26.1188ZM48.6456 27.089C48.2065 27.089 47.8119 26.9822 47.4618 26.7686C47.1117 26.555 46.8358 26.2642 46.634 25.8963C46.4323 25.5284 46.3314 25.113 46.3314 24.6502C46.3314 24.1874 46.4323 23.772 46.634 23.4041C46.8358 23.0362 47.1117 22.7454 47.4618 22.5318C47.8119 22.3182 48.2065 22.2114 48.6456 22.2114C49.0669 22.2114 49.4497 22.2915 49.7938 22.4517C50.138 22.6119 50.405 22.8344 50.5949 23.1193L49.9896 23.8491C49.9006 23.7245 49.7879 23.6118 49.6514 23.5109C49.5149 23.41 49.3695 23.3299 49.2153 23.2706C49.061 23.2112 48.9067 23.1816 48.7524 23.1816C48.4913 23.1816 48.2569 23.2468 48.0493 23.3774C47.8475 23.502 47.6873 23.677 47.5686 23.9025C47.4499 24.1221 47.3906 24.3713 47.3906 24.6502C47.3906 24.9291 47.4499 25.1783 47.5686 25.3979C47.6932 25.6174 47.8594 25.7925 48.0671 25.923C48.2747 26.0536 48.5062 26.1188 48.7613 26.1188C48.9156 26.1188 49.064 26.0951 49.2064 26.0476C49.3547 25.9942 49.4942 25.92 49.6247 25.8251C49.7552 25.7302 49.8769 25.6115 49.9896 25.4691L50.5949 26.2078C50.3931 26.4689 50.1142 26.6825 49.7582 26.8487C49.4081 27.0089 49.0372 27.089 48.6456 27.089ZM53.6306 27.089C53.1381 27.089 52.702 26.9852 52.3222 26.7775C51.9484 26.5698 51.6546 26.2879 51.441 25.9319C51.2333 25.5699 51.1295 25.1575 51.1295 24.6947C51.1295 24.3268 51.1888 23.9915 51.3075 23.6889C51.4262 23.3863 51.5894 23.1252 51.797 22.9056C52.0107 22.6802 52.2629 22.5081 52.5536 22.3894C52.8503 22.2648 53.1737 22.2025 53.5238 22.2025C53.8324 22.2025 54.1202 22.2618 54.3872 22.3805C54.6542 22.4992 54.8856 22.6624 55.0814 22.87C55.2773 23.0718 55.4256 23.3151 55.5265 23.5999C55.6333 23.8788 55.6837 24.1844 55.6778 24.5167L55.6689 24.8994H51.8683L51.6635 24.1518H54.7521L54.6097 24.3031V24.1072C54.5919 23.9233 54.5326 23.7631 54.4317 23.6266C54.3308 23.4842 54.2003 23.3744 54.04 23.2973C53.8858 23.2142 53.7137 23.1727 53.5238 23.1727C53.233 23.1727 52.9868 23.229 52.785 23.3418C52.5892 23.4545 52.4409 23.6177 52.34 23.8313C52.2391 24.039 52.1887 24.3001 52.1887 24.6146C52.1887 24.9172 52.251 25.1813 52.3756 25.4068C52.5061 25.6322 52.6871 25.8073 52.9185 25.9319C53.1559 26.0506 53.4318 26.1099 53.7463 26.1099C53.9659 26.1099 54.1676 26.0743 54.3516 26.0031C54.5355 25.9319 54.7343 25.8043 54.9479 25.6204L55.4909 26.3769C55.3307 26.5253 55.1467 26.6529 54.939 26.7597C54.7373 26.8606 54.5237 26.9407 54.2982 27C54.0727 27.0593 53.8502 27.089 53.6306 27.089Z" fill="white"/>
<path fill-rule="evenodd" clip-rule="evenodd" d="M22.8663 25.4096C22.8794 25.6145 22.8919 25.8117 22.9054 26.0001C23.0089 27.4494 22.8643 28.802 22.5688 29.6033C22.4121 30.0281 22.2623 30.1635 22.2136 30.187L22.2135 30.1877C22.2135 30.1877 22.2139 30.1886 22.203 30.1853C22.1737 30.1766 22.095 30.1411 21.9714 30.0175L21.9355 29.9817C20.8455 28.8917 19.4642 27.5103 18.6906 26.9301L17.9859 27.6294C18.3568 27.8148 20.0549 29.6745 21.1846 30.8043C21.3888 31.0085 21.6215 31.173 21.8852 31.2516C22.1633 31.3345 22.4436 31.3113 22.6969 31.1892C23.1573 30.9671 23.436 30.4673 23.6127 29.9883C23.9837 28.9822 24.1247 27.454 24.0151 25.9209C24.0018 25.7334 23.9894 25.5332 23.9764 25.3216C23.8125 22.6642 23.5386 18.2226 19.7134 14.9672L18.9923 15.8145C22.4424 18.7507 22.696 22.7339 22.8663 25.4096Z" fill="white"/>
<path fill-rule="evenodd" clip-rule="evenodd" d="M5.2269 13.9049C5.23315 14.3538 5.24231 14.8493 5.25464 15.378C5.26311 15.7413 5.27144 16.1169 5.27995 16.5011C5.32678 18.6137 5.37929 20.9828 5.4932 22.9672C5.5606 24.1414 5.64861 25.1632 5.76646 25.9094C5.79811 26.1099 5.831 26.2843 5.86461 26.4327C6.19719 26.0639 6.67588 25.5525 7.29055 25.0525C8.52141 24.0514 10.3398 23.0639 12.6805 23.3692C13.5155 23.4326 14.1565 23.6411 14.8997 24.0629C15.5696 24.4431 16.3363 25.0267 17.4367 25.8643C17.665 26.038 17.9076 26.2227 18.1667 26.4187C18.1817 26.3426 18.1971 26.2581 18.2126 26.165C18.3292 25.4684 18.4345 24.4344 18.5259 23.2202C18.7082 20.7983 18.8307 17.7232 18.8855 15.349C18.8977 14.818 18.9069 14.32 18.9131 13.8686C18.7323 8.81858 17.231 4.08007 12.0681 1.19842C9.49454 2.60942 7.81975 4.33668 6.77032 6.37402C5.67925 8.4922 5.24111 10.9902 5.2269 13.9049ZM12.0522 0L11.8288 0.0640198C8.92378 1.59298 6.98674 3.5242 5.78123 5.86454C4.58055 8.19552 4.12848 10.8879 4.11429 13.9048L4.11434 13.9152C4.1196 14.2943 4.12692 14.7061 4.13645 15.1428C0.503018 18.3807 0.235921 22.7117 0.0749616 25.3217C0.0619149 25.5333 0.0495656 25.7335 0.0361774 25.921C-0.0733309 27.4541 0.067615 28.9823 0.438667 29.9884C0.615312 30.4674 0.893997 30.9672 1.35445 31.1893C1.60771 31.3114 1.88798 31.3346 2.16614 31.2517C2.42985 31.1731 2.66248 31.0086 2.86667 30.8044C3.9527 29.7183 5.22417 28.4489 5.94401 27.8849C6.01343 27.8555 6.06596 27.819 6.09584 27.7969C6.16681 27.7443 6.28514 27.6248 6.28514 27.6248C6.28514 27.6248 6.45623 27.4398 6.56012 27.3236C6.60192 27.2768 6.64507 27.2286 6.6888 27.1801C7.00847 26.8256 7.44298 26.3627 7.99259 25.9157C8.96194 25.1273 10.2566 24.4131 11.8668 24.4259C13.009 24.4259 13.6014 24.6053 14.3505 25.0305C14.9502 25.3708 15.6309 25.8888 16.6985 26.7012C17.0846 26.995 17.5213 27.3273 18.0232 27.7037C18.1223 27.778 18.2718 27.8464 18.456 27.8317C18.6337 27.8176 18.7627 27.7326 18.8403 27.662C18.9769 27.5376 19.0492 27.372 19.0881 27.2714C19.1775 27.0408 19.2487 26.7146 19.31 26.3486C19.4353 25.5999 19.5435 24.5243 19.6354 23.3037C19.8196 20.8558 19.9427 17.7599 19.9978 15.3747C20.0102 14.835 20.0195 14.3288 20.0258 13.8702C20.0259 13.8611 20.0258 13.852 20.0255 13.8429C19.8364 8.49217 18.1965 3.19451 12.3135 0.0651616L12.0522 0ZM4.95239 27.2606C4.93323 27.2129 4.91562 27.1643 4.8993 27.1158C4.80563 26.837 4.73047 26.4819 4.66748 26.083C4.54077 25.2806 4.45035 24.2142 4.38243 23.031C4.26991 21.0708 4.21673 18.7412 4.17072 16.6657C1.56209 19.4859 1.33936 22.9848 1.185 25.4097C1.17196 25.6146 1.15941 25.8118 1.14595 26.0002C1.04243 27.4495 1.18701 28.8021 1.48253 29.6034C1.63918 30.0281 1.78905 30.1636 1.83772 30.1871L1.83782 30.1878C1.83782 30.1878 1.83737 30.1887 1.84833 30.1854C1.87764 30.1767 1.95634 30.1412 2.07994 30.0176L2.11577 29.9818C3.03366 29.0639 4.15818 27.9393 4.95239 27.2606Z" fill="white"/>
<circle cx="11.8666" cy="11.126" r="3.70866" stroke="white" stroke-width="1.1126"/>
<path d="M14.8335 31.1349C14.8335 32.011 14.462 33.8456 13.8385 35.4721C13.5284 36.2808 13.1706 36.9987 12.7926 37.5037C12.3954 38.0344 12.0767 38.1992 11.8666 38.1992C11.6566 38.1992 11.3378 38.0344 10.9406 37.5037C10.5626 36.9987 10.2048 36.2808 9.89475 35.4721C9.27124 33.8456 8.89968 32.011 8.89968 31.1349C8.89968 29.5088 10.2254 28.1858 11.8666 28.1858C13.5079 28.1858 14.8335 29.5088 14.8335 31.1349Z" stroke="white" stroke-width="1.1126"/>
<path d="M4.82014 38.3897C4.82014 37.8683 5.04654 36.732 5.43521 35.7154C5.62786 35.2115 5.84591 34.7763 6.0687 34.4778C6.31095 34.1532 6.4589 34.1197 6.48904 34.1197C6.51917 34.1197 6.66713 34.1532 6.90937 34.4778C7.13217 34.7763 7.35022 35.2115 7.54287 35.7154C7.93154 36.732 8.15793 37.8683 8.15793 38.3897C8.15793 39.3074 7.41194 40.0535 6.48904 40.0535C5.56613 40.0535 4.82014 39.3074 4.82014 38.3897Z" stroke="white" stroke-width="1.1126"/>
<path d="M15.5753 38.3897C15.5753 37.8683 15.8017 36.732 16.1903 35.7154C16.383 35.2115 16.601 34.7763 16.8238 34.4778C17.0661 34.1532 17.214 34.1197 17.2442 34.1197C17.2743 34.1197 17.4223 34.1532 17.6645 34.4778C17.8873 34.7763 18.1053 35.2115 18.298 35.7154C18.6867 36.732 18.9131 37.8683 18.9131 38.3897C18.9131 39.3074 18.1671 40.0535 17.2442 40.0535C16.3213 40.0535 15.5753 39.3074 15.5753 38.3897Z" stroke="white" stroke-width="1.1126"/>
</svg>
